<mxfile host="app.diagrams.net" modified="2022-05-12T13:38:04.982Z" agent="5.0 (Windows NT 10.0; Win64; x64) AppleWebKit/537.36 (KHTML, like Gecko) Chrome/101.0.4951.54 Safari/537.36 Edg/101.0.1210.39" etag="dbJ1-Nzm-SfIGNBAzcbN" version="18.0.3" type="github">
  <diagram id="UzLNnCSpyNCtRl-beyy4" name="Page-1">
    <mxGraphModel dx="2078" dy="1117" grid="1" gridSize="10" guides="1" tooltips="1" connect="1" arrows="1" fold="1" page="1" pageScale="1" pageWidth="827" pageHeight="1169" math="0" shadow="0">
      <root>
        <mxCell id="0" />
        <mxCell id="1" parent="0" />
        <mxCell id="nCYbbM5J5iTv4SYyO_7w-48" value="" style="group" vertex="1" connectable="0" parent="1">
          <mxGeometry x="40" y="380" width="280" height="230" as="geometry" />
        </mxCell>
        <mxCell id="nCYbbM5J5iTv4SYyO_7w-50" value="" style="ellipse;whiteSpace=wrap;html=1;dashed=1;" vertex="1" parent="nCYbbM5J5iTv4SYyO_7w-48">
          <mxGeometry x="160" y="142.5" width="120" height="80" as="geometry" />
        </mxCell>
        <mxCell id="nCYbbM5J5iTv4SYyO_7w-49" value="" style="ellipse;whiteSpace=wrap;html=1;dashed=1;" vertex="1" parent="nCYbbM5J5iTv4SYyO_7w-48">
          <mxGeometry x="-20" y="135" width="170" height="95" as="geometry" />
        </mxCell>
        <mxCell id="nCYbbM5J5iTv4SYyO_7w-2" value="" style="ellipse;whiteSpace=wrap;html=1;dashed=1;" vertex="1" parent="nCYbbM5J5iTv4SYyO_7w-48">
          <mxGeometry x="40" y="-10" width="210" height="140" as="geometry" />
        </mxCell>
        <mxCell id="nCYbbM5J5iTv4SYyO_7w-3" value="" style="ellipse;whiteSpace=wrap;html=1;aspect=fixed;" vertex="1" parent="nCYbbM5J5iTv4SYyO_7w-48">
          <mxGeometry x="50" y="160" width="10" height="10" as="geometry" />
        </mxCell>
        <mxCell id="nCYbbM5J5iTv4SYyO_7w-26" style="edgeStyle=none;rounded=0;orthogonalLoop=1;jettySize=auto;html=1;entryX=0.5;entryY=0;entryDx=0;entryDy=0;endArrow=none;endFill=0;" edge="1" parent="nCYbbM5J5iTv4SYyO_7w-48" source="nCYbbM5J5iTv4SYyO_7w-4" target="nCYbbM5J5iTv4SYyO_7w-3">
          <mxGeometry relative="1" as="geometry" />
        </mxCell>
        <mxCell id="nCYbbM5J5iTv4SYyO_7w-4" value="" style="ellipse;whiteSpace=wrap;html=1;aspect=fixed;" vertex="1" parent="nCYbbM5J5iTv4SYyO_7w-48">
          <mxGeometry x="70" y="30" width="10" height="10" as="geometry" />
        </mxCell>
        <mxCell id="nCYbbM5J5iTv4SYyO_7w-23" style="edgeStyle=none;rounded=0;orthogonalLoop=1;jettySize=auto;html=1;entryX=1;entryY=1;entryDx=0;entryDy=0;endArrow=none;endFill=0;" edge="1" parent="nCYbbM5J5iTv4SYyO_7w-48" source="nCYbbM5J5iTv4SYyO_7w-5" target="nCYbbM5J5iTv4SYyO_7w-4">
          <mxGeometry relative="1" as="geometry" />
        </mxCell>
        <mxCell id="nCYbbM5J5iTv4SYyO_7w-5" value="" style="ellipse;whiteSpace=wrap;html=1;aspect=fixed;" vertex="1" parent="nCYbbM5J5iTv4SYyO_7w-48">
          <mxGeometry x="140" y="70" width="10" height="10" as="geometry" />
        </mxCell>
        <mxCell id="nCYbbM5J5iTv4SYyO_7w-6" value="" style="ellipse;whiteSpace=wrap;html=1;aspect=fixed;" vertex="1" parent="nCYbbM5J5iTv4SYyO_7w-48">
          <mxGeometry y="150" width="10" height="10" as="geometry" />
        </mxCell>
        <mxCell id="nCYbbM5J5iTv4SYyO_7w-30" style="edgeStyle=none;rounded=0;orthogonalLoop=1;jettySize=auto;html=1;entryX=1;entryY=0;entryDx=0;entryDy=0;endArrow=none;endFill=0;" edge="1" parent="nCYbbM5J5iTv4SYyO_7w-48" source="nCYbbM5J5iTv4SYyO_7w-3" target="nCYbbM5J5iTv4SYyO_7w-6">
          <mxGeometry relative="1" as="geometry" />
        </mxCell>
        <mxCell id="nCYbbM5J5iTv4SYyO_7w-28" style="edgeStyle=none;rounded=0;orthogonalLoop=1;jettySize=auto;html=1;entryX=1;entryY=1;entryDx=0;entryDy=0;endArrow=none;endFill=0;" edge="1" parent="nCYbbM5J5iTv4SYyO_7w-48" source="nCYbbM5J5iTv4SYyO_7w-7" target="nCYbbM5J5iTv4SYyO_7w-6">
          <mxGeometry relative="1" as="geometry" />
        </mxCell>
        <mxCell id="nCYbbM5J5iTv4SYyO_7w-7" value="" style="ellipse;whiteSpace=wrap;html=1;aspect=fixed;" vertex="1" parent="nCYbbM5J5iTv4SYyO_7w-48">
          <mxGeometry x="30" y="210" width="10" height="10" as="geometry" />
        </mxCell>
        <mxCell id="nCYbbM5J5iTv4SYyO_7w-33" style="edgeStyle=none;rounded=0;orthogonalLoop=1;jettySize=auto;html=1;entryX=0.5;entryY=0;entryDx=0;entryDy=0;endArrow=none;endFill=0;" edge="1" parent="nCYbbM5J5iTv4SYyO_7w-48" source="nCYbbM5J5iTv4SYyO_7w-3" target="nCYbbM5J5iTv4SYyO_7w-7">
          <mxGeometry relative="1" as="geometry" />
        </mxCell>
        <mxCell id="nCYbbM5J5iTv4SYyO_7w-25" style="edgeStyle=none;rounded=0;orthogonalLoop=1;jettySize=auto;html=1;entryX=1;entryY=0;entryDx=0;entryDy=0;endArrow=none;endFill=0;" edge="1" parent="nCYbbM5J5iTv4SYyO_7w-48" source="nCYbbM5J5iTv4SYyO_7w-8" target="nCYbbM5J5iTv4SYyO_7w-4">
          <mxGeometry relative="1" as="geometry" />
        </mxCell>
        <mxCell id="nCYbbM5J5iTv4SYyO_7w-8" value="" style="ellipse;whiteSpace=wrap;html=1;aspect=fixed;" vertex="1" parent="nCYbbM5J5iTv4SYyO_7w-48">
          <mxGeometry x="160" width="10" height="10" as="geometry" />
        </mxCell>
        <mxCell id="nCYbbM5J5iTv4SYyO_7w-47" style="edgeStyle=none;rounded=0;orthogonalLoop=1;jettySize=auto;html=1;endArrow=none;endFill=0;" edge="1" parent="nCYbbM5J5iTv4SYyO_7w-48" source="nCYbbM5J5iTv4SYyO_7w-9">
          <mxGeometry relative="1" as="geometry">
            <mxPoint x="208" y="170" as="targetPoint" />
          </mxGeometry>
        </mxCell>
        <mxCell id="nCYbbM5J5iTv4SYyO_7w-9" value="" style="ellipse;whiteSpace=wrap;html=1;aspect=fixed;" vertex="1" parent="nCYbbM5J5iTv4SYyO_7w-48">
          <mxGeometry x="170" y="110" width="10" height="10" as="geometry" />
        </mxCell>
        <mxCell id="nCYbbM5J5iTv4SYyO_7w-34" style="edgeStyle=none;rounded=0;orthogonalLoop=1;jettySize=auto;html=1;entryX=0.5;entryY=0;entryDx=0;entryDy=0;endArrow=none;endFill=0;" edge="1" parent="nCYbbM5J5iTv4SYyO_7w-48" source="nCYbbM5J5iTv4SYyO_7w-5" target="nCYbbM5J5iTv4SYyO_7w-9">
          <mxGeometry relative="1" as="geometry" />
        </mxCell>
        <mxCell id="nCYbbM5J5iTv4SYyO_7w-27" style="edgeStyle=none;rounded=0;orthogonalLoop=1;jettySize=auto;html=1;entryX=1;entryY=0;entryDx=0;entryDy=0;endArrow=none;endFill=0;" edge="1" parent="nCYbbM5J5iTv4SYyO_7w-48" source="nCYbbM5J5iTv4SYyO_7w-10" target="nCYbbM5J5iTv4SYyO_7w-3">
          <mxGeometry relative="1" as="geometry" />
        </mxCell>
        <mxCell id="nCYbbM5J5iTv4SYyO_7w-31" style="edgeStyle=none;rounded=0;orthogonalLoop=1;jettySize=auto;html=1;entryX=0;entryY=0.5;entryDx=0;entryDy=0;endArrow=none;endFill=0;" edge="1" parent="nCYbbM5J5iTv4SYyO_7w-48" source="nCYbbM5J5iTv4SYyO_7w-10" target="nCYbbM5J5iTv4SYyO_7w-9">
          <mxGeometry relative="1" as="geometry" />
        </mxCell>
        <mxCell id="nCYbbM5J5iTv4SYyO_7w-10" value="" style="ellipse;whiteSpace=wrap;html=1;aspect=fixed;" vertex="1" parent="nCYbbM5J5iTv4SYyO_7w-48">
          <mxGeometry x="90" y="140" width="10" height="10" as="geometry" />
        </mxCell>
        <mxCell id="nCYbbM5J5iTv4SYyO_7w-29" style="edgeStyle=none;rounded=0;orthogonalLoop=1;jettySize=auto;html=1;entryX=1;entryY=1;entryDx=0;entryDy=0;endArrow=none;endFill=0;" edge="1" parent="nCYbbM5J5iTv4SYyO_7w-48" source="nCYbbM5J5iTv4SYyO_7w-11" target="nCYbbM5J5iTv4SYyO_7w-3">
          <mxGeometry relative="1" as="geometry" />
        </mxCell>
        <mxCell id="nCYbbM5J5iTv4SYyO_7w-11" value="" style="ellipse;whiteSpace=wrap;html=1;aspect=fixed;" vertex="1" parent="nCYbbM5J5iTv4SYyO_7w-48">
          <mxGeometry x="100" y="210" width="10" height="10" as="geometry" />
        </mxCell>
        <mxCell id="nCYbbM5J5iTv4SYyO_7w-36" style="edgeStyle=none;rounded=0;orthogonalLoop=1;jettySize=auto;html=1;entryX=0.5;entryY=0;entryDx=0;entryDy=0;endArrow=none;endFill=0;" edge="1" parent="nCYbbM5J5iTv4SYyO_7w-48" source="nCYbbM5J5iTv4SYyO_7w-10" target="nCYbbM5J5iTv4SYyO_7w-11">
          <mxGeometry relative="1" as="geometry" />
        </mxCell>
        <mxCell id="nCYbbM5J5iTv4SYyO_7w-12" value="" style="ellipse;whiteSpace=wrap;html=1;aspect=fixed;" vertex="1" parent="nCYbbM5J5iTv4SYyO_7w-48">
          <mxGeometry x="209" y="80" width="10" height="10" as="geometry" />
        </mxCell>
        <mxCell id="nCYbbM5J5iTv4SYyO_7w-20" value="" style="rounded=0;orthogonalLoop=1;jettySize=auto;html=1;endArrow=none;endFill=0;" edge="1" parent="nCYbbM5J5iTv4SYyO_7w-48" source="nCYbbM5J5iTv4SYyO_7w-5" target="nCYbbM5J5iTv4SYyO_7w-12">
          <mxGeometry relative="1" as="geometry" />
        </mxCell>
        <mxCell id="nCYbbM5J5iTv4SYyO_7w-24" style="edgeStyle=none;rounded=0;orthogonalLoop=1;jettySize=auto;html=1;entryX=0.5;entryY=1;entryDx=0;entryDy=0;endArrow=none;endFill=0;" edge="1" parent="nCYbbM5J5iTv4SYyO_7w-48" source="nCYbbM5J5iTv4SYyO_7w-9" target="nCYbbM5J5iTv4SYyO_7w-12">
          <mxGeometry relative="1" as="geometry" />
        </mxCell>
        <mxCell id="nCYbbM5J5iTv4SYyO_7w-32" style="edgeStyle=none;rounded=0;orthogonalLoop=1;jettySize=auto;html=1;endArrow=none;endFill=0;entryX=0;entryY=0;entryDx=0;entryDy=0;" edge="1" parent="nCYbbM5J5iTv4SYyO_7w-48" source="nCYbbM5J5iTv4SYyO_7w-13" target="nCYbbM5J5iTv4SYyO_7w-12">
          <mxGeometry relative="1" as="geometry">
            <mxPoint x="220" y="80" as="targetPoint" />
          </mxGeometry>
        </mxCell>
        <mxCell id="nCYbbM5J5iTv4SYyO_7w-13" value="" style="ellipse;whiteSpace=wrap;html=1;aspect=fixed;" vertex="1" parent="nCYbbM5J5iTv4SYyO_7w-48">
          <mxGeometry x="189" y="30" width="10" height="10" as="geometry" />
        </mxCell>
        <mxCell id="nCYbbM5J5iTv4SYyO_7w-21" value="" style="rounded=0;orthogonalLoop=1;jettySize=auto;html=1;endArrow=none;endFill=0;" edge="1" parent="nCYbbM5J5iTv4SYyO_7w-48" source="nCYbbM5J5iTv4SYyO_7w-5" target="nCYbbM5J5iTv4SYyO_7w-13">
          <mxGeometry relative="1" as="geometry" />
        </mxCell>
        <mxCell id="nCYbbM5J5iTv4SYyO_7w-38" value="" style="ellipse;whiteSpace=wrap;html=1;aspect=fixed;" vertex="1" parent="nCYbbM5J5iTv4SYyO_7w-48">
          <mxGeometry x="218" y="200" width="10" height="10" as="geometry" />
        </mxCell>
        <mxCell id="nCYbbM5J5iTv4SYyO_7w-39" value="" style="ellipse;whiteSpace=wrap;html=1;aspect=fixed;" vertex="1" parent="nCYbbM5J5iTv4SYyO_7w-48">
          <mxGeometry x="203" y="170" width="10" height="10" as="geometry" />
        </mxCell>
        <mxCell id="nCYbbM5J5iTv4SYyO_7w-44" style="edgeStyle=none;rounded=0;orthogonalLoop=1;jettySize=auto;html=1;entryX=0;entryY=0.5;entryDx=0;entryDy=0;endArrow=none;endFill=0;" edge="1" parent="nCYbbM5J5iTv4SYyO_7w-48" source="nCYbbM5J5iTv4SYyO_7w-40" target="nCYbbM5J5iTv4SYyO_7w-38">
          <mxGeometry relative="1" as="geometry" />
        </mxCell>
        <mxCell id="nCYbbM5J5iTv4SYyO_7w-40" value="" style="ellipse;whiteSpace=wrap;html=1;aspect=fixed;" vertex="1" parent="nCYbbM5J5iTv4SYyO_7w-48">
          <mxGeometry x="189" y="200" width="10" height="10" as="geometry" />
        </mxCell>
        <mxCell id="nCYbbM5J5iTv4SYyO_7w-43" style="edgeStyle=none;rounded=0;orthogonalLoop=1;jettySize=auto;html=1;entryX=0.5;entryY=0;entryDx=0;entryDy=0;endArrow=none;endFill=0;" edge="1" parent="nCYbbM5J5iTv4SYyO_7w-48" source="nCYbbM5J5iTv4SYyO_7w-39" target="nCYbbM5J5iTv4SYyO_7w-40">
          <mxGeometry relative="1" as="geometry" />
        </mxCell>
        <mxCell id="nCYbbM5J5iTv4SYyO_7w-42" value="" style="ellipse;whiteSpace=wrap;html=1;aspect=fixed;" vertex="1" parent="nCYbbM5J5iTv4SYyO_7w-48">
          <mxGeometry x="250" y="160" width="10" height="10" as="geometry" />
        </mxCell>
        <mxCell id="nCYbbM5J5iTv4SYyO_7w-45" style="edgeStyle=none;rounded=0;orthogonalLoop=1;jettySize=auto;html=1;entryX=0;entryY=1;entryDx=0;entryDy=0;endArrow=none;endFill=0;" edge="1" parent="nCYbbM5J5iTv4SYyO_7w-48" source="nCYbbM5J5iTv4SYyO_7w-38" target="nCYbbM5J5iTv4SYyO_7w-42">
          <mxGeometry relative="1" as="geometry" />
        </mxCell>
        <mxCell id="nCYbbM5J5iTv4SYyO_7w-46" style="edgeStyle=none;rounded=0;orthogonalLoop=1;jettySize=auto;html=1;entryX=0;entryY=0.5;entryDx=0;entryDy=0;endArrow=none;endFill=0;" edge="1" parent="nCYbbM5J5iTv4SYyO_7w-48" source="nCYbbM5J5iTv4SYyO_7w-39" target="nCYbbM5J5iTv4SYyO_7w-42">
          <mxGeometry relative="1" as="geometry" />
        </mxCell>
        <mxCell id="nCYbbM5J5iTv4SYyO_7w-54" value="" style="rounded=0;whiteSpace=wrap;html=1;dashed=1;" vertex="1" parent="1">
          <mxGeometry x="374" y="170" width="770" height="400" as="geometry" />
        </mxCell>
        <mxCell id="nCYbbM5J5iTv4SYyO_7w-61" value="" style="group" vertex="1" connectable="0" parent="1">
          <mxGeometry x="435" y="370" width="60" height="60" as="geometry" />
        </mxCell>
        <mxCell id="nCYbbM5J5iTv4SYyO_7w-53" value="" style="rounded=0;whiteSpace=wrap;html=1;" vertex="1" parent="nCYbbM5J5iTv4SYyO_7w-61">
          <mxGeometry width="60" height="60" as="geometry" />
        </mxCell>
        <mxCell id="nCYbbM5J5iTv4SYyO_7w-56" value="" style="rounded=0;whiteSpace=wrap;html=1;" vertex="1" parent="nCYbbM5J5iTv4SYyO_7w-61">
          <mxGeometry width="20" height="20" as="geometry" />
        </mxCell>
        <mxCell id="nCYbbM5J5iTv4SYyO_7w-57" value="" style="rounded=0;whiteSpace=wrap;html=1;" vertex="1" parent="nCYbbM5J5iTv4SYyO_7w-61">
          <mxGeometry x="20" y="20" width="20" height="20" as="geometry" />
        </mxCell>
        <mxCell id="nCYbbM5J5iTv4SYyO_7w-58" value="" style="rounded=0;whiteSpace=wrap;html=1;" vertex="1" parent="nCYbbM5J5iTv4SYyO_7w-61">
          <mxGeometry x="40" y="40" width="20" height="20" as="geometry" />
        </mxCell>
        <mxCell id="nCYbbM5J5iTv4SYyO_7w-59" value="" style="rounded=0;whiteSpace=wrap;html=1;" vertex="1" parent="nCYbbM5J5iTv4SYyO_7w-61">
          <mxGeometry x="40" width="20" height="20" as="geometry" />
        </mxCell>
        <mxCell id="nCYbbM5J5iTv4SYyO_7w-60" value="" style="rounded=0;whiteSpace=wrap;html=1;" vertex="1" parent="nCYbbM5J5iTv4SYyO_7w-61">
          <mxGeometry y="40" width="20" height="20" as="geometry" />
        </mxCell>
        <mxCell id="nCYbbM5J5iTv4SYyO_7w-62" value="subgraph`s Laplacian matrix" style="text;html=1;align=center;verticalAlign=middle;resizable=0;points=[];autosize=1;strokeColor=none;fillColor=none;fontFamily=Times New Roman;" vertex="1" parent="1">
          <mxGeometry x="390" y="435" width="150" height="20" as="geometry" />
        </mxCell>
        <mxCell id="nCYbbM5J5iTv4SYyO_7w-94" value="" style="group" vertex="1" connectable="0" parent="1">
          <mxGeometry x="591" y="350" width="120" height="90" as="geometry" />
        </mxCell>
        <mxCell id="nCYbbM5J5iTv4SYyO_7w-64" value="" style="shape=parallelogram;perimeter=parallelogramPerimeter;whiteSpace=wrap;html=1;fixedSize=1;fontFamily=Times New Roman;fillColor=#fff2cc;strokeColor=#d6b656;" vertex="1" parent="nCYbbM5J5iTv4SYyO_7w-94">
          <mxGeometry width="120" height="60" as="geometry" />
        </mxCell>
        <mxCell id="nCYbbM5J5iTv4SYyO_7w-80" value="" style="shape=parallelogram;perimeter=parallelogramPerimeter;whiteSpace=wrap;html=1;fixedSize=1;fontFamily=Times New Roman;fillColor=#fff2cc;strokeColor=#d6b656;" vertex="1" parent="nCYbbM5J5iTv4SYyO_7w-94">
          <mxGeometry y="10" width="120" height="60" as="geometry" />
        </mxCell>
        <mxCell id="nCYbbM5J5iTv4SYyO_7w-83" value="" style="shape=parallelogram;perimeter=parallelogramPerimeter;whiteSpace=wrap;html=1;fixedSize=1;fontFamily=Times New Roman;fillColor=#fff2cc;strokeColor=#d6b656;" vertex="1" parent="nCYbbM5J5iTv4SYyO_7w-94">
          <mxGeometry y="20" width="120" height="60" as="geometry" />
        </mxCell>
        <mxCell id="nCYbbM5J5iTv4SYyO_7w-84" value="GCN-layers" style="shape=parallelogram;perimeter=parallelogramPerimeter;whiteSpace=wrap;html=1;fixedSize=1;fontFamily=Times New Roman;fillColor=#fff2cc;strokeColor=#d6b656;" vertex="1" parent="nCYbbM5J5iTv4SYyO_7w-94">
          <mxGeometry y="30" width="120" height="60" as="geometry" />
        </mxCell>
        <mxCell id="nCYbbM5J5iTv4SYyO_7w-95" value="" style="group" vertex="1" connectable="0" parent="1">
          <mxGeometry x="801" y="350" width="120" height="90" as="geometry" />
        </mxCell>
        <mxCell id="nCYbbM5J5iTv4SYyO_7w-89" value="" style="shape=parallelogram;perimeter=parallelogramPerimeter;whiteSpace=wrap;html=1;fixedSize=1;fontFamily=Times New Roman;fillColor=#dae8fc;strokeColor=#6c8ebf;" vertex="1" parent="nCYbbM5J5iTv4SYyO_7w-95">
          <mxGeometry width="120" height="60" as="geometry" />
        </mxCell>
        <mxCell id="nCYbbM5J5iTv4SYyO_7w-91" value="" style="shape=parallelogram;perimeter=parallelogramPerimeter;whiteSpace=wrap;html=1;fixedSize=1;fontFamily=Times New Roman;fillColor=#dae8fc;strokeColor=#6c8ebf;" vertex="1" parent="nCYbbM5J5iTv4SYyO_7w-95">
          <mxGeometry y="10" width="120" height="60" as="geometry" />
        </mxCell>
        <mxCell id="nCYbbM5J5iTv4SYyO_7w-92" value="" style="shape=parallelogram;perimeter=parallelogramPerimeter;whiteSpace=wrap;html=1;fixedSize=1;fontFamily=Times New Roman;fillColor=#dae8fc;strokeColor=#6c8ebf;" vertex="1" parent="nCYbbM5J5iTv4SYyO_7w-95">
          <mxGeometry y="20" width="120" height="60" as="geometry" />
        </mxCell>
        <mxCell id="nCYbbM5J5iTv4SYyO_7w-93" value="RNN-layers" style="shape=parallelogram;perimeter=parallelogramPerimeter;whiteSpace=wrap;html=1;fixedSize=1;fontFamily=Times New Roman;fillColor=#dae8fc;strokeColor=#6c8ebf;" vertex="1" parent="nCYbbM5J5iTv4SYyO_7w-95">
          <mxGeometry y="30" width="120" height="60" as="geometry" />
        </mxCell>
        <mxCell id="nCYbbM5J5iTv4SYyO_7w-99" value="hidden state H" style="edgeStyle=orthogonalEdgeStyle;rounded=0;orthogonalLoop=1;jettySize=auto;html=1;fontFamily=Times New Roman;endArrow=classic;endFill=1;entryX=1;entryY=0;entryDx=0;entryDy=0;" edge="1" parent="nCYbbM5J5iTv4SYyO_7w-95" source="nCYbbM5J5iTv4SYyO_7w-93" target="nCYbbM5J5iTv4SYyO_7w-89">
          <mxGeometry x="0.0824" relative="1" as="geometry">
            <mxPoint x="180" y="-10" as="targetPoint" />
            <Array as="points">
              <mxPoint x="220" y="70" />
              <mxPoint x="220" />
            </Array>
            <mxPoint as="offset" />
          </mxGeometry>
        </mxCell>
        <mxCell id="nCYbbM5J5iTv4SYyO_7w-98" value="intergrated" style="edgeStyle=orthogonalEdgeStyle;rounded=0;orthogonalLoop=1;jettySize=auto;html=1;fontFamily=Times New Roman;endArrow=classic;endFill=1;" edge="1" parent="1" source="nCYbbM5J5iTv4SYyO_7w-53">
          <mxGeometry relative="1" as="geometry">
            <mxPoint x="591" y="400" as="targetPoint" />
          </mxGeometry>
        </mxCell>
        <mxCell id="nCYbbM5J5iTv4SYyO_7w-106" style="edgeStyle=orthogonalEdgeStyle;rounded=0;orthogonalLoop=1;jettySize=auto;html=1;entryX=0.5;entryY=0;entryDx=0;entryDy=0;fontFamily=Times New Roman;endArrow=classic;endFill=1;" edge="1" parent="1" source="nCYbbM5J5iTv4SYyO_7w-100" target="nCYbbM5J5iTv4SYyO_7w-105">
          <mxGeometry relative="1" as="geometry" />
        </mxCell>
        <mxCell id="nCYbbM5J5iTv4SYyO_7w-100" value="Aggregate(y&lt;sub&gt;gcn&lt;/sub&gt;,y&lt;sub&gt;rnn&lt;/sub&gt;)" style="rounded=1;whiteSpace=wrap;html=1;fontFamily=Times New Roman;fillColor=#ffe6cc;strokeColor=#d79b00;" vertex="1" parent="1">
          <mxGeometry x="611" y="485" width="280" height="20" as="geometry" />
        </mxCell>
        <mxCell id="nCYbbM5J5iTv4SYyO_7w-101" style="edgeStyle=orthogonalEdgeStyle;rounded=0;orthogonalLoop=1;jettySize=auto;html=1;entryX=0.146;entryY=0.057;entryDx=0;entryDy=0;entryPerimeter=0;fontFamily=Times New Roman;endArrow=classic;endFill=1;" edge="1" parent="1" source="nCYbbM5J5iTv4SYyO_7w-84" target="nCYbbM5J5iTv4SYyO_7w-100">
          <mxGeometry relative="1" as="geometry">
            <Array as="points" />
          </mxGeometry>
        </mxCell>
        <mxCell id="nCYbbM5J5iTv4SYyO_7w-103" style="edgeStyle=orthogonalEdgeStyle;rounded=0;orthogonalLoop=1;jettySize=auto;html=1;entryX=0.895;entryY=0.031;entryDx=0;entryDy=0;entryPerimeter=0;fontFamily=Times New Roman;endArrow=classic;endFill=1;" edge="1" parent="1" source="nCYbbM5J5iTv4SYyO_7w-93" target="nCYbbM5J5iTv4SYyO_7w-100">
          <mxGeometry relative="1" as="geometry" />
        </mxCell>
        <mxCell id="nCYbbM5J5iTv4SYyO_7w-126" style="edgeStyle=none;rounded=0;orthogonalLoop=1;jettySize=auto;html=1;fontFamily=Times New Roman;endArrow=classic;endFill=1;entryX=0.5;entryY=0;entryDx=0;entryDy=0;" edge="1" parent="1" source="nCYbbM5J5iTv4SYyO_7w-105" target="nCYbbM5J5iTv4SYyO_7w-129">
          <mxGeometry relative="1" as="geometry">
            <mxPoint x="751" y="610" as="targetPoint" />
          </mxGeometry>
        </mxCell>
        <mxCell id="nCYbbM5J5iTv4SYyO_7w-105" value="BatchNorm" style="rounded=1;whiteSpace=wrap;html=1;fontFamily=Times New Roman;fillColor=#ffe6cc;strokeColor=#d79b00;" vertex="1" parent="1">
          <mxGeometry x="611" y="530" width="280" height="20" as="geometry" />
        </mxCell>
        <mxCell id="nCYbbM5J5iTv4SYyO_7w-69" value="extended input batch" style="text;html=1;align=center;verticalAlign=middle;resizable=0;points=[];autosize=1;strokeColor=none;fillColor=none;fontFamily=Times New Roman;container=0;" vertex="1" parent="1">
          <mxGeometry x="806" y="210" width="120" height="20" as="geometry" />
        </mxCell>
        <mxCell id="nCYbbM5J5iTv4SYyO_7w-70" value="" style="rounded=0;whiteSpace=wrap;html=1;fontFamily=Times New Roman;fillColor=#d5e8d4;strokeColor=#82b366;container=0;" vertex="1" parent="1">
          <mxGeometry x="801" y="230" width="110" height="40" as="geometry" />
        </mxCell>
        <mxCell id="nCYbbM5J5iTv4SYyO_7w-74" value="" style="rounded=0;whiteSpace=wrap;html=1;fontFamily=Times New Roman;fillColor=#d5e8d4;strokeColor=#82b366;container=0;" vertex="1" parent="1">
          <mxGeometry x="811" y="240" width="110" height="40" as="geometry" />
        </mxCell>
        <mxCell id="nCYbbM5J5iTv4SYyO_7w-75" value="" style="rounded=0;whiteSpace=wrap;html=1;fontFamily=Times New Roman;fillColor=#d5e8d4;strokeColor=#82b366;container=0;" vertex="1" parent="1">
          <mxGeometry x="821" y="250" width="110" height="40" as="geometry" />
        </mxCell>
        <mxCell id="nCYbbM5J5iTv4SYyO_7w-76" value="" style="rounded=0;whiteSpace=wrap;html=1;fontFamily=Times New Roman;fillColor=#d5e8d4;strokeColor=#82b366;container=0;" vertex="1" parent="1">
          <mxGeometry x="831" y="260" width="110" height="40" as="geometry" />
        </mxCell>
        <mxCell id="nCYbbM5J5iTv4SYyO_7w-77" value="" style="rounded=0;whiteSpace=wrap;html=1;fontFamily=Times New Roman;fillColor=#d5e8d4;strokeColor=#82b366;container=0;" vertex="1" parent="1">
          <mxGeometry x="841" y="270" width="110" height="40" as="geometry" />
        </mxCell>
        <mxCell id="nCYbbM5J5iTv4SYyO_7w-117" style="edgeStyle=orthogonalEdgeStyle;rounded=0;orthogonalLoop=1;jettySize=auto;html=1;entryX=0.612;entryY=0.002;entryDx=0;entryDy=0;entryPerimeter=0;fontFamily=Times New Roman;endArrow=classic;endFill=1;" edge="1" parent="1" source="nCYbbM5J5iTv4SYyO_7w-115" target="nCYbbM5J5iTv4SYyO_7w-64">
          <mxGeometry relative="1" as="geometry" />
        </mxCell>
        <mxCell id="nCYbbM5J5iTv4SYyO_7w-118" style="edgeStyle=orthogonalEdgeStyle;rounded=0;orthogonalLoop=1;jettySize=auto;html=1;entryX=0.5;entryY=0;entryDx=0;entryDy=0;fontFamily=Times New Roman;endArrow=classic;endFill=1;" edge="1" parent="1" source="nCYbbM5J5iTv4SYyO_7w-115" target="nCYbbM5J5iTv4SYyO_7w-89">
          <mxGeometry relative="1" as="geometry" />
        </mxCell>
        <mxCell id="nCYbbM5J5iTv4SYyO_7w-115" value="" style="rounded=0;whiteSpace=wrap;html=1;fontFamily=Times New Roman;fillColor=#e1d5e7;strokeColor=#9673a6;container=0;" vertex="1" parent="1">
          <mxGeometry x="851" y="270" width="20" height="40" as="geometry" />
        </mxCell>
        <mxCell id="nCYbbM5J5iTv4SYyO_7w-121" value="" style="endArrow=none;dashed=1;html=1;dashPattern=1 3;strokeWidth=2;rounded=0;fontFamily=Times New Roman;entryX=0;entryY=0;entryDx=0;entryDy=0;exitX=0.503;exitY=1.122;exitDx=0;exitDy=0;exitPerimeter=0;" edge="1" parent="1" source="nCYbbM5J5iTv4SYyO_7w-122" target="nCYbbM5J5iTv4SYyO_7w-115">
          <mxGeometry width="50" height="50" relative="1" as="geometry">
            <mxPoint x="1051" y="210" as="sourcePoint" />
            <mxPoint x="741" y="300" as="targetPoint" />
          </mxGeometry>
        </mxCell>
        <mxCell id="nCYbbM5J5iTv4SYyO_7w-122" value="Input vector&lt;br&gt;&amp;nbsp;within the selected subgraph" style="text;html=1;align=center;verticalAlign=middle;resizable=0;points=[];autosize=1;strokeColor=none;fillColor=none;fontFamily=Times New Roman;" vertex="1" parent="1">
          <mxGeometry x="611" y="200" width="160" height="30" as="geometry" />
        </mxCell>
        <mxCell id="nCYbbM5J5iTv4SYyO_7w-123" style="rounded=0;orthogonalLoop=1;jettySize=auto;html=1;fontFamily=Times New Roman;endArrow=classic;endFill=1;" edge="1" parent="1" source="nCYbbM5J5iTv4SYyO_7w-2">
          <mxGeometry relative="1" as="geometry">
            <mxPoint x="430" y="400" as="targetPoint" />
          </mxGeometry>
        </mxCell>
        <mxCell id="nCYbbM5J5iTv4SYyO_7w-125" value="&lt;h2&gt;A CRGCN block of subgraph G&lt;sub&gt;i&lt;/sub&gt;&lt;/h2&gt;" style="text;html=1;align=center;verticalAlign=middle;resizable=0;points=[];autosize=1;strokeColor=none;fillColor=none;fontFamily=Times New Roman;" vertex="1" parent="1">
          <mxGeometry x="374" y="120" width="260" height="50" as="geometry" />
        </mxCell>
        <mxCell id="nCYbbM5J5iTv4SYyO_7w-142" style="edgeStyle=none;rounded=0;orthogonalLoop=1;jettySize=auto;html=1;fontFamily=Times New Roman;fontSize=13;endArrow=classic;endFill=1;" edge="1" parent="1" source="nCYbbM5J5iTv4SYyO_7w-129" target="nCYbbM5J5iTv4SYyO_7w-139">
          <mxGeometry relative="1" as="geometry" />
        </mxCell>
        <mxCell id="nCYbbM5J5iTv4SYyO_7w-129" value="Out&lt;sub&gt;i&lt;/sub&gt;" style="rounded=0;whiteSpace=wrap;html=1;fontFamily=Times New Roman;fillColor=#f5f5f5;fontColor=#333333;strokeColor=#666666;" vertex="1" parent="1">
          <mxGeometry x="665" y="690" width="176" height="30" as="geometry" />
        </mxCell>
        <mxCell id="nCYbbM5J5iTv4SYyO_7w-130" style="edgeStyle=none;rounded=0;orthogonalLoop=1;jettySize=auto;html=1;fontFamily=Times New Roman;endArrow=classic;endFill=1;entryX=0.5;entryY=0;entryDx=0;entryDy=0;" edge="1" parent="1" source="nCYbbM5J5iTv4SYyO_7w-50" target="nCYbbM5J5iTv4SYyO_7w-133">
          <mxGeometry relative="1" as="geometry">
            <mxPoint x="260" y="670" as="targetPoint" />
          </mxGeometry>
        </mxCell>
        <mxCell id="nCYbbM5J5iTv4SYyO_7w-140" style="edgeStyle=none;rounded=0;orthogonalLoop=1;jettySize=auto;html=1;fontFamily=Times New Roman;fontSize=13;endArrow=classic;endFill=1;" edge="1" parent="1" source="nCYbbM5J5iTv4SYyO_7w-132" target="nCYbbM5J5iTv4SYyO_7w-139">
          <mxGeometry relative="1" as="geometry" />
        </mxCell>
        <mxCell id="nCYbbM5J5iTv4SYyO_7w-132" value="Out&lt;sub&gt;k&lt;/sub&gt;" style="rounded=0;whiteSpace=wrap;html=1;fontFamily=Times New Roman;fillColor=#f5f5f5;fontColor=#333333;strokeColor=#666666;" vertex="1" parent="1">
          <mxGeometry y="690" width="176" height="30" as="geometry" />
        </mxCell>
        <mxCell id="nCYbbM5J5iTv4SYyO_7w-141" style="edgeStyle=none;rounded=0;orthogonalLoop=1;jettySize=auto;html=1;entryX=0.5;entryY=0;entryDx=0;entryDy=0;fontFamily=Times New Roman;fontSize=13;endArrow=classic;endFill=1;" edge="1" parent="1" source="nCYbbM5J5iTv4SYyO_7w-133" target="nCYbbM5J5iTv4SYyO_7w-139">
          <mxGeometry relative="1" as="geometry" />
        </mxCell>
        <mxCell id="nCYbbM5J5iTv4SYyO_7w-133" value="Out&lt;span style=&quot;font-size: 10px;&quot;&gt;&lt;sub&gt;j&lt;/sub&gt;&lt;/span&gt;" style="rounded=0;whiteSpace=wrap;html=1;fontFamily=Times New Roman;fillColor=#f5f5f5;fontColor=#333333;strokeColor=#666666;" vertex="1" parent="1">
          <mxGeometry x="190" y="690" width="176" height="30" as="geometry" />
        </mxCell>
        <mxCell id="nCYbbM5J5iTv4SYyO_7w-134" style="edgeStyle=none;rounded=0;orthogonalLoop=1;jettySize=auto;html=1;fontFamily=Times New Roman;endArrow=classic;endFill=1;entryX=0.5;entryY=0;entryDx=0;entryDy=0;" edge="1" parent="1" source="nCYbbM5J5iTv4SYyO_7w-49" target="nCYbbM5J5iTv4SYyO_7w-132">
          <mxGeometry relative="1" as="geometry">
            <mxPoint x="100" y="700" as="targetPoint" />
          </mxGeometry>
        </mxCell>
        <mxCell id="nCYbbM5J5iTv4SYyO_7w-136" value="&lt;h1&gt;... ...&lt;/h1&gt;" style="text;html=1;align=center;verticalAlign=middle;resizable=0;points=[];autosize=1;strokeColor=none;fillColor=none;fontFamily=Times New Roman;" vertex="1" parent="1">
          <mxGeometry x="485" y="675" width="60" height="50" as="geometry" />
        </mxCell>
        <mxCell id="nCYbbM5J5iTv4SYyO_7w-137" value="&lt;h1&gt;... ...&lt;/h1&gt;" style="text;html=1;align=center;verticalAlign=middle;resizable=0;points=[];autosize=1;strokeColor=none;fillColor=none;fontFamily=Times New Roman;" vertex="1" parent="1">
          <mxGeometry x="400" y="675" width="60" height="50" as="geometry" />
        </mxCell>
        <mxCell id="nCYbbM5J5iTv4SYyO_7w-138" value="&lt;h1&gt;... ...&lt;/h1&gt;" style="text;html=1;align=center;verticalAlign=middle;resizable=0;points=[];autosize=1;strokeColor=none;fillColor=none;fontFamily=Times New Roman;" vertex="1" parent="1">
          <mxGeometry x="570" y="675" width="60" height="50" as="geometry" />
        </mxCell>
        <mxCell id="nCYbbM5J5iTv4SYyO_7w-143" style="edgeStyle=none;rounded=0;orthogonalLoop=1;jettySize=auto;html=1;fontFamily=Times New Roman;fontSize=13;endArrow=classic;endFill=1;" edge="1" parent="1" source="nCYbbM5J5iTv4SYyO_7w-139" target="nCYbbM5J5iTv4SYyO_7w-144">
          <mxGeometry relative="1" as="geometry">
            <mxPoint x="497.5" y="830" as="targetPoint" />
          </mxGeometry>
        </mxCell>
        <mxCell id="nCYbbM5J5iTv4SYyO_7w-139" value="&lt;font style=&quot;font-size: 13px;&quot;&gt;simple concanatation&lt;/font&gt;" style="rounded=1;whiteSpace=wrap;html=1;fontFamily=Times New Roman;fillColor=#ffe6cc;strokeColor=#d79b00;" vertex="1" parent="1">
          <mxGeometry x="315" y="750" width="365" height="30" as="geometry" />
        </mxCell>
        <mxCell id="nCYbbM5J5iTv4SYyO_7w-144" value="Out" style="rounded=0;whiteSpace=wrap;html=1;fontFamily=Times New Roman;fontSize=13;" vertex="1" parent="1">
          <mxGeometry x="437.5" y="810" width="122.5" height="30" as="geometry" />
        </mxCell>
      </root>
    </mxGraphModel>
  </diagram>
</mxfile>
